<?xml version="1.0" encoding="iso-8859-1"?>
<!-- Generator: Adobe Illustrator 19.0.0, SVG Export Plug-In . SVG Version: 6.00 Build 0)  -->
<svg version="1.1" id="Layer_1" xmlns="http://www.w3.org/2000/svg" xmlns:xlink="http://www.w3.org/1999/xlink" x="0px" y="0px"
	 viewBox="0 0 511.982 511.982" style="enable-background:new 0 0 511.982 511.982;" xml:space="preserve">
<path style="fill:#FC6E51;" d="M351.989,323.36H159.995c-29.405,0-53.326,23.938-53.326,53.342v42.654
	c0,29.438,23.92,53.342,53.326,53.342h191.994c29.404,0,53.326-23.904,53.326-53.342v-42.654
	C405.315,347.298,381.393,323.36,351.989,323.36z"/>
<path style="fill:#FFCE54;" d="M490.531,148.342c-13.391-23.437-32.702-43.92-57.405-60.904
	c-47.014-32.312-111.401-50.124-181.29-50.124c-34.53,0-67.294,4.312-97.403,12.781c-30.405,8.578-57.311,21.187-79.935,37.483
	c-23.515,16.937-41.843,37.467-54.483,60.998C6.735,173.31,0,200.918,0,230.636c0,28.781,13.749,59.662,40.842,91.787
	c20.921,24.812,49.952,50.592,86.278,76.621c61.374,44.031,121.699,73.311,124.23,74.561c1.469,0.688,3.047,1.062,4.641,1.062
	s3.172-0.375,4.641-1.062c2.531-1.25,62.857-30.529,124.229-74.561c36.327-26.029,65.357-51.809,86.279-76.621
	c27.092-32.125,40.842-63.006,40.842-91.787C511.983,200.919,504.764,173.232,490.531,148.342z"/>
<g>
	<path style="fill:#F6BB42;" d="M259.554,37.393l-3.562,10.609v319.981l25.968,1.5L365.409,65.83l1.922-10.593
		C334.553,44.252,297.959,38.127,259.554,37.393z"/>
	<path style="fill:#F6BB42;" d="M142.964,53.58c-25.733,8.375-48.717,19.781-68.466,33.999c-9.844,7.093-18.765,14.812-26.75,23.124
		l5.062,10.171l150.636,254.39l26.577-5.781L146.011,63.814L142.964,53.58z"/>
	<path style="fill:#F6BB42;" d="M0.188,222.167C0.063,224.964,0,227.792,0,230.636c0,28.781,13.749,59.662,40.842,91.787
		c20.921,24.812,49.952,50.592,86.278,76.621c8.25,5.938,16.484,11.594,24.562,16.938c15.015,1.094,26.765,2,26.765,2V388.39
		L10.75,224.887L0.188,222.167z"/>
	<path style="fill:#F6BB42;" d="M511.202,213.949c-2.203-23.421-9.141-45.436-20.671-65.607
		c-6.047-10.578-13.297-20.546-21.702-29.858l-10.688,4.141L308.615,375.108l25.547,12.656l167.056-162.878
		C501.218,224.887,505.28,220.434,511.202,213.949z"/>
</g>
<g>
	<path style="fill:#E9573F;" d="M159.995,440.701c-5.89,0-10.671,4.781-10.671,10.656v20.279c3.453,0.688,7.016,1.062,10.671,1.062
		h10.672v-21.342C170.667,445.481,165.886,440.701,159.995,440.701z"/>
	<path style="fill:#E9573F;" d="M351.989,440.701c-5.891,0-10.671,4.781-10.671,10.656v21.342h10.671
		c3.655,0,7.217-0.375,10.67-1.062v-20.279C362.659,445.481,357.879,440.701,351.989,440.701z"/>
</g>
<path style="fill:#E6E9ED;" d="M255.992,474.667c1.594,0,3.172-0.375,4.641-1.062c2.234-1.094,49.061-23.842,102.026-59.186
	c-0.016-0.031-20.873-48.373-106.667-48.373c-85.81,0-104.309,49.936-104.309,49.936l0,0c51.983,34.469,97.481,56.561,99.668,57.623
	C252.82,474.292,254.398,474.667,255.992,474.667z"/>
<g>
</g>
<g>
</g>
<g>
</g>
<g>
</g>
<g>
</g>
<g>
</g>
<g>
</g>
<g>
</g>
<g>
</g>
<g>
</g>
<g>
</g>
<g>
</g>
<g>
</g>
<g>
</g>
<g>
</g>
</svg>
