<svg enable-background="new 0 0 690.2999878 422.7000122" version="1.1" viewBox="0 0 690 423" xml:space="preserve" xmlns="http://www.w3.org/2000/svg">
<style type="text/css">
	.st0{fill:#89C541;}
	.st1{fill:#FFFFFF;}
	.st2{fill:#36681F;}
	.st3{fill:#77C045;}
	.st4{fill:#A7DB51;}
	.st5{fill:#3BB44A;}
	.st6{fill:#0E9342;}
</style>
<g id="Layer_2_1_">
	<g transform="matrix(-1 0 0 1 690 0)">
		<path class="st0" d="m269 206c-7.2-1.5-14-4.5-20-8.7-3.5-3.1-6.6-6.6-9.2-10.5-2-3-3.7-6.1-5.2-9.4-0.6-1.3-1.1-2.6-1.7-3.9-7.6-19.6 2.6-37.9 7.1-61.2 2.6-12.4 2.7-25.1 0.1-37.5-8.3-39.2-50.4-69-97-73.8-48.4-4.9-72.3 23.9-91.9 51.3-15.5 21.5-45.3 27.4-50.9 75.2-5.6 47.8 37.2 102 84 90.9v0.8-0.8c2.3-1 4.5-2.2 6.6-3.6 2.3-1.6 4.4-3.4 6.3-5.5 3.8-4.1 6.3-9.3 7.1-14.8 0.1-0.6 0.6-1 1.1-0.9s1 0.6 0.9 1.1c-0.6 6.1-3 11.8-6.8 16.6-1.9 2.4-4.1 4.5-6.5 6.3-2.4 1.9-5 3.5-7.8 4.9-0.3-0.7-0.6-1.4-0.8-2.2 0.7 3.6 4.6 10.9 24.7 8.1 18.9-2.7 39.8-3.7 61.5 11.4 8.4 5.8 17 14 25.6 25.5 7.6-2 15-4.7 22.1-8.1 29.1-13.5 44.6-38.9 50.2-50.1zm-142-62.3c-7.6 2.8-17-3.7-20.9-14.4-3.9-10.7-0.9-21.7 6.8-24.5 7.7-2.8 17 3.7 20.9 14.4 3.9 10.7 0.9 21.7-6.8 24.5z"/>
		<path d="m113 104c-7.7 2.8-10.7 13.8-6.8 24.5 3.9 10.7 13.3 17.2 20.9 14.4 7.6-2.8 10.7-13.7 6.8-24.5-3.9-10.8-13.3-17.2-20.9-14.4zm7.8 17.6c-3.2 1.2-6.7-0.5-7.9-3.7-1.2-3.2 0.5-6.7 3.7-7.9 3.2-1.2 6.7 0.5 7.9 3.7 1.2 3.2-0.5 6.7-3.7 7.9z"/>
		<path class="st1" d="m117 110c-3.2 1.2-4.9 4.7-3.7 7.9 1.2 3.2 4.7 4.9 7.9 3.7 3.2-1.2 4.9-4.7 3.7-7.9-1.2-3.2-4.7-4.9-7.9-3.7z"/>
		<path class="st2" d="m85.4 222c2.8-1.3 5.4-2.9 7.8-4.9 2.4-1.9 4.6-4 6.5-6.3 3.9-4.7 6.3-10.5 6.8-16.6 0.1-0.6-0.3-1-0.9-1.1-0.6-0.1-1 0.3-1.1 0.9-0.9 5.5-3.3 10.7-7.2 14.8-1.9 2.1-4 3.9-6.3 5.5-2.1 1.4-4.3 2.6-6.6 3.6v0.8c0 0.4 0.1 0.7 0.2 1.1 0.1 0.8 0.4 1.5 0.8 2.2z"/>
		<path class="st3" d="m157 279c-2.7 12-7.6 41.7 3.3 68.6 14.1 34.7 46.4 68.5 67.5 57.7 20-10.2-12.5-58.6 5.7-82.8-12-6.5-23.2-14.3-33.4-23.4-19.5-17.7-35-13.4-43.1-20.1z"/>
		<path class="st0" d="m593 196 0.4-0.4c4.6-4.2 11.7-3.8 15.9 0.8 0.6 0.7 1.1 1.4 1.5 2.2 13.1-19.4 11.6-49.6 5.1-52.4-6.5-2.8-9.8 2.8-17.3 17.8-4.2 8.3-10.2 11.9-14.7 13.4 2.9 6.6 5.2 13.4 7.1 20.4 0.7-0.6 1.4-1.2 2-1.8z"/>
		<path class="st4" d="m545 268c-7.4 4.5-15 8.6-22.8 12.3-17.1 7.9-35.4 14.3-54.4 17.5-8.2 1.4-16.4 2.3-24.6 2.8-5.6 15.8-2.5 30 4.2 42.7 59.3-12 97.2-32.4 120-54.1-13-6.8-19.5-15.5-22.6-21.2z"/>
		<path class="st4" d="m314 254c-1.9-1.7-3.8-3.5-5.6-5.3-6.7-6.6-13-13.5-18.8-20.4-5.8-6.9-11.5-13.9-16.9-19.7-1-1.1-2.1-2.1-3.1-3.1-5.2 10.6-20.7 37.3-50.8 51.2-35.1 16.2-68.3 15.9-47.9-16.5 0 0-25.8 17.7-16.8 34.6 0.8 1.5 1.9 2.9 3.3 4 8.2 6.7 23.7 2.4 43.1 20.1 10.2 9.1 21.4 16.9 33.4 23.4 22.5 12.3 54.9 24.5 98.7 28.4-22-36.6-20.7-78.1-18.6-96.7z"/>
		<path class="st3" d="m443 300c-1.5 0.1-2.9 0.1-4.4 0.2-9.6 0.2-19.1-0.3-28.6-1.4-9.6-1.2-19.2-3.1-28.5-5.8-9.4-2.8-18.5-6.4-27.2-10.7-14.9-7.5-28.7-17.1-40.9-28.5-2.1 18.5-3.4 60.1 18.6 96.6 6.9 11.4 15.7 21.5 26 30 61.4 50.6 115 49.2 131 28.6 11.1-13.9-25.9-35.8-42.1-66.2-6.7-12.8-9.7-27.1-4.2-42.8z"/>
		<path class="st3" d="m690 248c-1.4-19.7-29.7 3.7-46.4 2.3-21.2-1.7-35-24.9-39.1-32.9-4.4 5.1-8.9 9.8-13.7 14.4-6.7 6.4-13.7 12.5-21 18.2-8 6.2-16.3 12-25 17.2 3.1 5.8 9.6 14.5 22.6 21.2 9.3 4.8 22 8.7 39.1 9.7 56.3 3.4 84.9-30.4 83.5-50.1z"/>
		<path class="st5" d="m584 178c-7.1-16.5-16.7-31.8-28.3-45.4l0.1 0.1c-0.3 8.7-5 16.7-12.4 21.3-12.7 7.7-29.6 2.9-37.8-10.6s-4.6-30.8 8.1-38.4c2.7-1.6 5.6-2.7 8.7-3.3-14.7-10.6-30.5-19.2-47.3-25.6 2.4 5.6 3.4 11.7 2.9 17.7-2.5 28-36.5 47.8-76.1 44.4-39.6-3.4-69.7-28.9-67.2-56.9 0.7-7.1 3.3-13.8 7.5-19.5-7.2 1.1-14.1 2.5-20.6 4.1 0.9 1.5 1.4 3.2 1.6 4.9 0.8 7.5-5 14.4-13.1 15.3-7.7 0.9-14.6-4-15.9-11 0 0-0.2 0.1-0.3 0.1-25.6 10.9-43 25.3-53.8 36.7-4.6 23.2-14.7 41.5-7.1 61.2 0.5 1.4 1.1 2.7 1.7 3.9l0.5-0.1c2.7-0.7 5.5-1.2 8.4-1.5 5.7-0.6 11.4-0.2 16.9 1.1 11.1 2.5 20.7 9 27.9 16 7.1 6.7 12.8 13.2 19 19.3 5.9 6 12.2 11.7 18.7 17 12.5 10.3 26.6 18.5 41.7 24.5 14.9 5.8 30.5 9.4 46.3 10.8 8.1 0.8 16.2 1.1 24.3 0.9 7.9-0.1 15.9-0.8 23.7-2.1 16-2.6 31.7-7.1 46.7-13.4 15.4-6.3 30.2-14 44.2-23 7.1-4.5 14.1-9.2 20.8-14.3 3.4-2.5 6.7-5.1 10-7.8 2.5-2 5-4.1 7.3-6.1-1.9-6.8-4.3-13.7-7.1-20.3zm-287-28.9c-13.6 8.1-30.8 4.3-38.3-8.5s-2.6-29.6 11-37.7c13.6-8.1 30.8-4.3 38.3 8.4 7.5 12.7 2.6 29.8-11 37.8zm73.1 72.6c-2.4 7.2-10.6 10.9-18.3 8.4s-12-10.5-9.5-17.7c2.5-7.2 10.6-10.9 18.3-8.4 7.7 2.5 11.9 10.5 9.5 17.7zm-2.5-40c-10.2 8.4-24.8 7.5-32.6-2s-6-24 4.1-32.4c10.1-8.4 24.8-7.5 32.6 2s6.1 24-4.1 32.4zm57 55c-21.1 0-38.2-15.2-38.2-34.1s17.1-34.1 38.2-34.1c21.1 0 38.2 15.3 38.2 34.1s-17 34.1-38.2 34.1zm63.8-62.6c-6.5 3.9-15.2 1.5-19.4-5.4-4.2-6.9-2.4-15.8 4.1-19.7s15.2-1.5 19.4 5.5 2.4 15.7-4.1 19.6zm52.7 48.9c-10.5 6.4-24.6 2.4-31.5-8.9-6.9-11.3-3.8-25.6 6.7-32s24.6-2.4 31.5 8.9c6.9 11.3 3.9 25.7-6.7 32z"/>
		<path class="st6" d="m611 199c-2.9-5.5-9.8-7.5-15.2-4.5-0.8 0.4-1.5 0.9-2.2 1.5l-0.4 0.4c-0.7 0.6-1.3 1.2-2.1 1.8-2.3 2-4.9 4.1-7.3 6.1-3.3 2.7-6.6 5.2-10 7.8-6.7 5.1-13.7 9.8-20.8 14.3-14 9-28.8 16.7-44.2 23-15 6.2-30.7 10.7-46.7 13.4-7.8 1.3-15.8 2-23.7 2.1-8.1 0.2-16.2-0.1-24.3-0.9-15.9-1.4-31.5-5-46.3-10.8-15.1-6-29.1-14.2-41.7-24.5-6.5-5.3-12.8-11-18.7-17-6.1-6.1-11.9-12.6-19-19.3-7.2-6.9-16.8-13.4-27.9-16-5.5-1.4-11.3-1.8-16.9-1.1-2.8 0.3-5.6 0.8-8.4 1.5l-0.5 0.1c1.5 3.3 3.2 6.5 5.2 9.4 2.6 3.9 5.7 7.4 9.2 10.5 6 4.2 12.8 7.1 20 8.7 1 1 2.1 2 3.1 3.1 5.4 5.9 11 12.9 16.9 19.7 5.9 6.8 12.1 13.8 18.8 20.4 1.8 1.8 3.7 3.6 5.6 5.3 12.2 11.4 26 20.9 40.9 28.5 8.7 4.3 17.8 7.9 27.2 10.7 9.3 2.7 18.9 4.6 28.5 5.8 9.5 1.1 19.1 1.6 28.6 1.4 1.5 0 3-0.1 4.4-0.2 8.3-0.4 16.5-1.3 24.6-2.8 19.1-3.2 37.3-9.6 54.4-17.5 7.8-3.7 15.4-7.8 22.8-12.3 8.6-5.2 17-11 24.9-17.2 7.3-5.7 14.3-11.8 21-18.2 4.8-4.7 9.3-9.3 13.7-14.4 1.8-2.1 3.5-4.2 5.3-6.4 2.9-3.5 3.3-8.4 1.2-12.4z"/>
		<path class="st5" d="m196 265c-8.6-11.5-17.2-19.7-25.6-25.5-0.3 0.5-0.6 0.9-0.8 1.4 0.4-0.3 0.6-0.4 0.6-0.4-16 25.2 0.9 30.9 25.8 24.5z"/>
		<path class="st6" d="m425 237c21.1 0 38.2-15.3 38.2-34.1s-17.1-34.1-38.2-34.1c-21.1 0-38.2 15.3-38.2 34.1s17.1 34.1 38.2 34.1z"/>
		<path class="st6" d="m297 149c13.6-8.1 18.6-24.9 11-37.7-7.6-12.8-24.7-16.5-38.3-8.4-13.6 8.1-18.5 24.9-11 37.7 7.5 12.8 24.7 16.5 38.3 8.4z"/>
		<path class="st4" d="m541 223c10.6-6.4 13.6-20.7 6.8-32-6.8-11.3-20.9-15.3-31.5-8.9s-13.6 20.7-6.8 32c6.8 11.3 20.9 15.3 31.5 8.9z"/>
		<path class="st4" d="m488 174c6.5-3.9 8.4-12.7 4.2-19.7-4.2-7-12.9-9.4-19.4-5.5-6.5 3.9-8.4 12.8-4.1 19.7 4.3 6.9 12.8 9.5 19.3 5.5z"/>
		<path class="st6" d="m344 61.4-1.8 0.3c-4.3 5.7-6.9 12.4-7.6 19.5-2.5 28 27.6 53.5 67.2 56.9 39.6 3.4 73.6-16.4 76.1-44.4 0.5-6-0.5-12.1-2.9-17.7l-0.9-0.3c-0.9-0.4-1.9-0.7-2.9-1.1-0.3-0.1-0.6-0.2-0.9-0.3-38.6-13.7-80.5-18-121-13.5-1.4 0.2-2.8 0.3-4.1 0.5z"/>
		<path class="st4" d="m514 105c-12.7 7.7-16.3 24.9-8.1 38.4 8.2 13.5 25.1 18.3 37.8 10.6 7.4-4.6 12.1-12.6 12.4-21.3l-0.2-0.2c-1.1-1.3-2.2-2.6-3.4-3.9l-0.3-0.4c-2.3-2.5-4.7-5.1-7.2-7.6l-0.4-0.4c-2.5-2.5-5.1-4.9-7.8-7.3l-0.5-0.5c-2.7-2.4-5.5-4.7-8.4-7l-0.7-0.5c-1.5-1.1-3-2.3-4.5-3.4-3.1 0.8-6 1.9-8.7 3.5z"/>
		<path class="st4" d="m310 86c8.1-0.9 13.9-7.7 13.1-15.3-0.2-1.7-0.7-3.4-1.6-4.9-4.3 1.1-8.5 2.3-12.5 3.6-0.5 0.2-0.9 0.3-1.4 0.4l-1.2 0.4c-4.3 1.5-8.5 3.1-12.4 4.7 1.4 7.1 8.3 12 16 11.1z"/>
		<path class="st4" d="m360 204c-7.7-2.6-15.9 1.1-18.3 8.4-2.4 7.3 1.9 15.1 9.5 17.7 7.6 2.6 15.9-1.1 18.3-8.4s-1.8-15.1-9.5-17.7z"/>
		<path class="st4" d="m368 182c10.1-8.4 12-22.9 4.1-32.4-7.9-9.5-22.5-10.4-32.6-2-10.1 8.4-12 22.9-4.1 32.4s22.5 10.4 32.6 2z"/>
	</g>
</g>
</svg>
